<?xml version="1.0" encoding="UTF-8" standalone="no"?>
<svg
   xmlns:dc="http://purl.org/dc/elements/1.1/"
   xmlns:cc="http://creativecommons.org/ns#"
   xmlns:rdf="http://www.w3.org/1999/02/22-rdf-syntax-ns#"
   xmlns:svg="http://www.w3.org/2000/svg"
   xmlns="http://www.w3.org/2000/svg"
   xmlns:sodipodi="http://sodipodi.sourceforge.net/DTD/sodipodi-0.dtd"
   xmlns:inkscape="http://www.inkscape.org/namespaces/inkscape"
   inkscape:version="1.0alpha2 (883c7bc, 2019-06-02)"
   sodipodi:docname="eth_type2.svg"
   id="svg843"
   xml:space="preserve"
   enable-background="new 0 0 100 100"
   viewBox="0 0 1024 1024"
   y="0px"
   x="0px"
   version="1.1"
   fill="#000000"
   width="1024"
   height="1024">
  <metadata
     id="metadata849">
    <rdf:RDF>
      <cc:Work
         rdf:about="">
        <dc:format>image/svg+xml</dc:format>
        <dc:type
           rdf:resource="http://purl.org/dc/dcmitype/StillImage" />
        <dc:title></dc:title>
      </cc:Work>
    </rdf:RDF>
  </metadata>
  <defs
     id="defs847" />
  <sodipodi:namedview
     inkscape:current-layer="svg843"
     inkscape:window-maximized="0"
     inkscape:window-y="23"
     inkscape:window-x="0"
     inkscape:cy="512"
     inkscape:cx="512"
     inkscape:zoom="0.73730469"
     showgrid="false"
     id="namedview845"
     inkscape:window-height="963"
     inkscape:window-width="1607"
     inkscape:pageshadow="2"
     inkscape:pageopacity="0"
     guidetolerance="10"
     gridtolerance="10"
     objecttolerance="10"
     borderopacity="1"
     inkscape:document-rotation="0"
     bordercolor="#666666"
     pagecolor="#ffffff" />
  <path
     sodipodi:nodetypes="ccccccccscccccccccccccccccccscccccccccccccccccccccc"
     inkscape:connector-curvature="0"
     d="m 237.69672,502.08818 c 0.044,1.7785 0.42261,3.46897 1.13578,5.0978 0.22892,0.54588 0.40501,1.07415 0.72197,1.57601 1.10056,1.84013 2.50048,3.52179 4.47269,4.7192 0.0264,0.0176 0.0792,0.0176 0.10565,0.0353 0.0353,0.0176 0.044,0.0616 0.0792,0.0792 l 261.98665,153.50643 c 0.20251,0.12327 0.44023,0.0616 0.66034,0.1849 1.88417,0.96849 3.96203,1.69046 6.26,1.69046 2.29798,0 4.37584,-0.72197 6.27761,-1.72568 0.23772,-0.0968 0.51066,-0.0616 0.73958,-0.1849 L 777.4653,513.53402 c 2.01624,-1.19741 3.42495,-2.91429 4.56954,-4.78964 0.30816,-0.51947 0.50185,-1.00372 0.72197,-1.5584 0.72197,-1.63764 1.10056,-3.3193 1.1622,-5.0978 0,-0.3786 0.24652,-0.68676 0.2201,-1.04774 0,-0.16728 -0.13206,-0.28175 -0.16728,-0.44903 -0.15849,-2.01623 -0.66034,-3.98844 -1.76091,-5.83738 L 524.87304,63.95872 c -0.0968,-0.17609 -0.26413,-0.246526 -0.37858,-0.413812 -0.30816,-0.493052 -0.68676,-0.880449 -1.06535,-1.320675 -0.47544,-0.554683 -0.95969,-1.047735 -1.51438,-1.540787 -0.42261,-0.343375 -0.80121,-0.721968 -1.25024,-1.003712 -0.17608,-0.123263 -0.26413,-0.299354 -0.44022,-0.405007 -0.29936,-0.184895 -0.62512,-0.184895 -0.92447,-0.334571 -0.5987,-0.316963 -1.19741,-0.545879 -1.85776,-0.774796 -0.54587,-0.1937 -1.09175,-0.387398 -1.68165,-0.501857 -0.5811,-0.132067 -1.14458,-0.158481 -1.72568,-0.184894 -0.31697,-0.03522 -0.59871,-0.193699 -0.91567,-0.193699 -0.31696,0 -0.56348,0.158481 -0.88045,0.17609 -0.56348,0.05282 -1.09176,0.06163 -1.63764,0.176089 -0.62512,0.114459 -1.19741,0.316963 -1.81372,0.519466 -0.64273,0.220112 -1.24143,0.457834 -1.84014,0.774796 -0.27295,0.149676 -0.5811,0.149676 -0.85404,0.299353 -0.15848,0.09685 -0.25533,0.264135 -0.40501,0.360985 -0.48424,0.316961 -0.89805,0.70436 -1.35589,1.100562 -0.54588,0.475443 -1.03893,0.942081 -1.51437,1.496764 -0.34338,0.422617 -0.72198,0.80121 -1.00371,1.25024 -0.13208,0.176089 -0.29936,0.264134 -0.41381,0.440224 L 239.4224,494.68359 c -1.13578,1.84894 -1.63763,3.86518 -1.81373,5.91662 -0.0176,0.17609 -0.14087,0.29056 -0.15847,0.47545 -0.009,0.33457 0.22891,0.65153 0.24652,1.01252 z M 526.81884,120.59806 752.35086,504.84514 529.53142,634.00287 Z M 498.07176,635.27992 265.47774,499.59607 499.42805,119.85848 Z"
     style="opacity:1;stroke:#000000;stroke-width:19.3202;stroke-miterlimit:4;stroke-dasharray:none;stroke-opacity:1;stop-opacity:1"
     id="path833" />
  <path
     d="m 782.96811,577.87321 c -4.34061,-4.75442 -11.48987,-5.69651 -17.0367,-2.51808 L 513.11904,724.61779 260.40352,575.35513 c -5.52042,-3.21365 -12.66967,-2.23634 -17.06312,2.51808 -4.37584,4.78965 -4.83367,11.92129 -1.09176,17.2128 l 259.68869,365.87093 c 0.2025,0.28175 0.53707,0.36979 0.73958,0.62513 0.53707,0.65152 1.07414,1.22382 1.69926,1.76089 0.29936,0.24652 0.47545,0.62512 0.80121,0.84524 0.25533,0.18489 0.5811,0.10565 0.85404,0.28174 0.44022,0.25533 0.81882,0.62512 1.30306,0.86284 1.74329,0.84523 3.67148,1.38231 5.73173,1.38231 0.009,0 0.009,0 0.0264,0 0,0 0,0 0.0176,0 v 0 0 c 0.0176,0 0.0176,0 0.0176,0 0.009,0 0.009,0 0.0265,0 2.06025,0 3.97963,-0.54588 5.73173,-1.38231 0.48424,-0.22892 0.86284,-0.59871 1.30306,-0.86284 0.26414,-0.1849 0.58991,-0.0968 0.85404,-0.28174 0.32577,-0.21132 0.50186,-0.58991 0.80121,-0.84524 0.62512,-0.54587 1.171,-1.10937 1.69046,-1.76089 0.20251,-0.25534 0.54589,-0.34338 0.73958,-0.62513 L 784.05987,595.08601 c 3.75952,-5.29151 3.29289,-12.42315 -1.09176,-17.2128 z M 499.42805,748.38113 v 161.6682 L 301.80227,631.63348 Z m 27.39079,161.6682 V 748.38113 L 724.52385,631.63348 Z"
     id="path835"
     inkscape:connector-curvature="0"
     style="opacity:1;stroke:#000000;stroke-width:19.3202;stroke-miterlimit:4;stroke-dasharray:none;stroke-opacity:1;stop-opacity:1" />
</svg>
