<?xml version="1.0" encoding="UTF-8" standalone="no"?>
<svg
   xmlns:dc="http://purl.org/dc/elements/1.1/"
   xmlns:cc="http://creativecommons.org/ns#"
   xmlns:rdf="http://www.w3.org/1999/02/22-rdf-syntax-ns#"
   xmlns:svg="http://www.w3.org/2000/svg"
   xmlns="http://www.w3.org/2000/svg"
   xmlns:sodipodi="http://sodipodi.sourceforge.net/DTD/sodipodi-0.dtd"
   xmlns:inkscape="http://www.inkscape.org/namespaces/inkscape"
   width="1024"
   height="1024"
   viewBox="0 0 270.93333 270.93334"
   version="1.1"
   id="svg8"
   inkscape:version="1.0alpha2 (883c7bc, 2019-06-02)"
   sodipodi:docname="wa_type.svg"
   inkscape:export-filename="/Users/user/wa_lens.png"
   inkscape:export-xdpi="96.000008"
   inkscape:export-ydpi="96.000008">
  <defs
     id="defs2" />
  <sodipodi:namedview
     id="base"
     pagecolor="#ffffff"
     bordercolor="#666666"
     borderopacity="1.0"
     inkscape:pageopacity="0.0"
     inkscape:pageshadow="2"
     inkscape:zoom="0.48268324"
     inkscape:cx="510.53505"
     inkscape:cy="512"
     inkscape:document-units="px"
     inkscape:current-layer="layer1"
     inkscape:document-rotation="0"
     showgrid="false"
     units="px"
     inkscape:window-width="1251"
     inkscape:window-height="907"
     inkscape:window-x="0"
     inkscape:window-y="23"
     inkscape:window-maximized="0" />
  <metadata
     id="metadata5">
    <rdf:RDF>
      <cc:Work
         rdf:about="">
        <dc:format>image/svg+xml</dc:format>
        <dc:type
           rdf:resource="http://purl.org/dc/dcmitype/StillImage" />
        <dc:title></dc:title>
      </cc:Work>
    </rdf:RDF>
  </metadata>
  <g
     inkscape:label="Layer 1"
     inkscape:groupmode="layer"
     id="layer1">
    <path
       inkscape:connector-curvature="0"
       id="use958"
       style="opacity:1;fill:#ffffff;stroke:#ffffff;stroke-width:5.73959;stroke-miterlimit:4;stroke-dasharray:none;stroke-opacity:1;stop-opacity:1"
       d="m 178.42136,178.19921 c -4.81762,5.47885 -4.73994,13.70546 0.18027,19.09237 l 25.04136,27.46714 c 2.94481,3.25593 7.10395,5.15052 11.49322,5.23549 0.12867,0.002 0.25731,0.004 0.38595,0.004 6.62695,-0.005 12.5697,-4.08182 14.96089,-10.26232 2.39119,-6.18053 0.73943,-13.19515 -4.15828,-17.65934 L 198.8578,177.03674 c -5.38693,-4.92039 -13.61363,-4.99847 -19.09299,-0.18121 z m 6.76802,5.42436 a 5.6622242,5.6622242 0 0 1 7.83026,-0.18026 l 27.46692,25.03983 a 7.3880248,7.3880248 0 0 1 0.24883,10.68505 7.4493319,7.4493319 0 0 1 -5.39793,2.16317 7.3228007,7.3228007 0 0 1 -5.2879,-2.40951 l -25.04139,-27.46708 a 5.6649974,5.6649974 0 0 1 0.18109,-7.8312 z m -49.1681,11.3509 c 15.75871,0.007 30.89704,-6.14087 42.18897,-17.13311 l 1.34345,-1.34346 c 20.04338,-20.72322 22.71905,-52.69649 6.4001,-76.4594 C 169.63504,76.275973 138.83841,67.300657 112.30027,78.564289 85.762098,89.827921 70.823226,118.21496 76.578566,146.46094 c 5.75541,28.24633 30.612314,48.53391 59.442714,48.51353 z M 135.97668,82.357149 A 51.99917,51.99917 0 1 1 83.977792,134.35642 52.058103,52.058103 0 0 1 135.97672,82.357149 Z" />
    <path
       inkscape:connector-curvature="0"
       d="m 40.297412,38.703348 c -0.883111,0 -1.594063,0.710952 -1.594063,1.594063 V 230.63593 c 0,0.88312 0.710952,1.59406 1.594063,1.59406 H 230.63593 c 0.88312,0 1.59406,-0.71094 1.59406,-1.59406 V 40.297411 c 0,-0.883111 -0.71094,-1.594063 -1.59406,-1.594063 h -50.91721 a 44.253523,44.253523 0 0 1 0.001,0.343097 44.253523,44.253523 0 0 1 -44.25329,44.253912 44.253523,44.253523 0 0 1 -44.253285,-44.253912 44.253523,44.253523 0 0 1 0.001,-0.343097 z"
       style="fill:none;stroke:#000000;stroke-width:13.22916675;stroke-linecap:round;stroke-linejoin:round;stroke-miterlimit:4;stroke-dasharray:none;paint-order:fill markers stroke"
       id="rect842" />
  </g>
</svg>
