<?xml version="1.0" encoding="UTF-8"?> <svg xmlns="http://www.w3.org/2000/svg" viewBox="0 0 455.47 134.86"> <defs> <style>.cls-1{fill:#404a72;}.cls-2{fill:#556195;}.cls-3{fill:#6ecce0;}.cls-4{fill:#fff;}</style> </defs> <title>orbslogoAsset 1</title> <g id="Layer_2" data-name="Layer 2"> <g id="Layer_1-2" data-name="Layer 1"> <path class="cls-1" d="M39,86.26a1.53,1.53,0,0,1-2.75.8l-22-20.49a1.65,1.65,0,0,1,.55-3L45.6,51.29c1.43-.57,2.29.18,1.91,1.68Z"></path> <path class="cls-2" d="M20.8,105.73c-1.17,1-2.35.59-2.62-.93l-6-33.3c-.28-1.52.42-1.9,1.55-.85l20.9,19.5a2.47,2.47,0,0,1-.07,3.75Z"></path> <path class="cls-2" d="M46,44.66a1.88,1.88,0,0,1-.78,3.17L14.61,60.08c-1.44.57-2.17-.14-1.63-1.59L25.56,24.68a1.52,1.52,0,0,1,2.81-.51Z"></path> <path class="cls-2" d="M13.92,100.07c.28,1.52-.19,1.7-1,.41L1,82.13a4.34,4.34,0,0,1,.16-4.61l5.3-7.11c.93-1.24,1.91-1,2.18.51Z"></path> <path class="cls-2" d="M10.18,56.41c-.54,1.45-1.38,1.44-1.87,0L4.26,44.2a4.7,4.7,0,0,1,1.19-4.55L19.92,26.54c1.14-1,1.64-.7,1.1.75Z"></path> <path class="cls-2" d="M6.36,61.11A6,6,0,0,1,5.57,66L1.42,71.59c-.93,1.24-1.55,1-1.4-.54L2,51.72c.15-1.54.69-1.6,1.17-.13Z"></path> <path class="cls-2" d="M22.69,17.58c.52.59,0,1.93-1.15,3L15,26.45c-1.15,1-1.33.87-.41-.37l5.45-7.33C21,17.51,22.18,17,22.69,17.58Z"></path> <path class="cls-2" d="M63.76,120.46a1.65,1.65,0,0,1-3,.11l-17-24.76a1.53,1.53,0,0,1,1.2-2.6l34.19-3.53c1.53-.16,2.15.8,1.37,2.14Z"></path> <path class="cls-2" d="M56.63,120.48c.88,1.28.4,1.91-1.07,1.42L23.52,111c-1.46-.5-1.7-1.73-.53-2.74L36.72,96.44a2.47,2.47,0,0,1,3.72.48Z"></path> <path class="cls-3" d="M79.84,83.93c1,1.17.57,2.25-1,2.41l-34.7,3.58a1.83,1.83,0,0,1-2.09-2.43l8.68-33.78c.39-1.49,1.53-1.76,2.53-.59Z"></path> <path class="cls-2" d="M104.77,112.87a1.52,1.52,0,0,1-.92,2.71L68.55,123c-1.51.32-2.11-.51-1.33-1.85L83.87,92.68a1.89,1.89,0,0,1,3.25-.3Z"></path> <path class="cls-2" d="M48,131.87a4.35,4.35,0,0,1-4.58-.53L27,116.87c-1.15-1-.9-1.45.56-1l28,9.53c1.47.5,1.55,1.51.19,2.24Z"></path> <path class="cls-2" d="M86.06,133.25a4.69,4.69,0,0,1-4.67.5L70,127.94c-1.38-.71-1.27-1.54.24-1.86l30.41-6.4c1.51-.32,1.77.22.58,1.2Z"></path> <path class="cls-2" d="M54.21,134c-1.55-.07-1.69-.73-.33-1.46L60,129.22a6,6,0,0,1,5-.06l8.94,4.55c1.38.7,1.24,1.21-.3,1.14Z"></path> <path class="cls-2" d="M110.45,119.47c.51.59-.18,1.68-1.54,2.41l-8.06,4.3c-1.37.73-1.51.52-.31-.46l6.8-5.56C108.54,119.18,109.94,118.87,110.45,119.47Z"></path> <path class="cls-1" d="M90.08,83.57c-1.44.57-2.3-.18-1.91-1.68l8.55-33.28a1.54,1.54,0,0,1,2.76-.81l22,20.5a1.64,1.64,0,0,1-.55,3Z"></path> <path class="cls-2" d="M123.52,63.36c.27,1.52-.42,1.91-1.55.85l-20.91-19.5a2.47,2.47,0,0,1,.08-3.75l13.73-11.83c1.17-1,2.36-.59,2.63.93Z"></path> <path class="cls-2" d="M110.12,110.19a1.53,1.53,0,0,1-2.82.5L89.66,90.2A1.88,1.88,0,0,1,90.43,87l30.64-12.25c1.43-.57,2.17.14,1.63,1.59Z"></path> <path class="cls-2" d="M134.66,52.73a4.36,4.36,0,0,1-.15,4.61l-5.31,7.11c-.92,1.24-1.9,1-2.18-.51l-5.27-29.15c-.27-1.52.19-1.7,1-.41Z"></path> <path class="cls-2" d="M131.42,90.66a4.7,4.7,0,0,1-1.19,4.55l-14.47,13.11c-1.15,1-1.64.7-1.1-.74L125.5,78.45c.53-1.45,1.37-1.44,1.86,0Z"></path> <path class="cls-2" d="M133.66,83.14c-.16,1.54-.69,1.59-1.18.13l-3.17-9.52a6,6,0,0,1,.79-4.91l4.16-5.57c.92-1.24,1.55-1,1.39.54Z"></path> <path class="cls-2" d="M115.6,116.11c-.93,1.25-2.1,1.77-2.62,1.17s0-1.93,1.15-3l6.51-5.9c1.14-1,1.33-.87.41.37Z"></path> <path class="cls-1" d="M91.94,39.05a1.53,1.53,0,0,1-1.2,2.6L56.55,45.18c-1.54.16-2.16-.8-1.38-2.13L71.92,14.4a1.65,1.65,0,0,1,3-.11Z"></path> <path class="cls-2" d="M99,38.42a2.47,2.47,0,0,1-3.72-.48L79,14.38c-.87-1.28-.39-1.91,1.07-1.41l32.05,10.88c1.46.5,1.7,1.73.53,2.74Z"></path> <path class="cls-2" d="M84.9,81.15c-.38,1.5-1.52,1.76-2.53.59L55.84,50.94c-1-1.17-.58-2.26,1-2.42l34.69-3.58a1.83,1.83,0,0,1,2.1,2.43Z"></path> <path class="cls-2" d="M51.8,42.18a1.88,1.88,0,0,1-3.25.3L30.91,22a1.52,1.52,0,0,1,.91-2.71l35.3-7.43c1.52-.32,2.12.51,1.34,1.85Z"></path> <path class="cls-2" d="M80.06,9.42c-1.46-.5-1.54-1.5-.18-2.24L87.7,3a4.35,4.35,0,0,1,4.58.53L108.66,18c1.16,1,.91,1.45-.55,1Z"></path> <path class="cls-2" d="M35.07,15.18c-1.51.32-1.77-.22-.57-1.2L49.61,1.61a4.71,4.71,0,0,1,4.68-.5L65.73,6.93c1.38.7,1.27,1.53-.24,1.85Z"></path> <path class="cls-2" d="M75.68,5.64a6,6,0,0,1-5,.06l-9-4.55C60.38.45,60.51-.06,62.06,0L81.47.9c1.54.07,1.69.73.33,1.46Z"></path> <path class="cls-2" d="M28.34,14.7c-1.2,1-2.6,1.29-3.11.7s.18-1.69,1.54-2.41l8.06-4.31c1.36-.73,1.5-.52.31.46Z"></path> <path class="cls-2" d="M18,112.58c.59-.52,1.93,0,3,1.14l5.9,6.51c1,1.15.87,1.33-.37.41l-7.34-5.45C17.91,114.27,17.39,113.09,18,112.58Z"></path> <path class="cls-2" d="M119.87,24.82c.6-.52,1.69.18,2.41,1.54l4.31,8.06c.72,1.37.52,1.5-.46.31l-5.56-6.8C119.59,26.73,119.28,25.33,119.87,24.82Z"></path> <path class="cls-2" d="M116.52,19.67c1.24.92,1.77,2.1,1.17,2.61s-1.93,0-3-1.14l-5.9-6.51c-1-1.15-.87-1.33.37-.41Z"></path> <path class="cls-2" d="M15.11,106.93c1,1.2,1.29,2.6.69,3.11s-1.68-.18-2.41-1.54l-4.3-8.06c-.73-1.37-.52-1.5.46-.31Z"></path> <path class="cls-4" d="M226.18,40.52a31.62,31.62,0,0,1,11.6,11.25,29.58,29.58,0,0,1,4.28,15.57A30,30,0,0,1,237.78,83a32.23,32.23,0,0,1-55.3,0,29.94,29.94,0,0,1-4.29-15.66,29.5,29.5,0,0,1,4.29-15.57,32.71,32.71,0,0,1,43.7-11.25Zm-28.91,4.69a25.62,25.62,0,0,0-9.45,9.27,24.58,24.58,0,0,0-3.5,12.86,25,25,0,0,0,3.5,13,25.84,25.84,0,0,0,9.45,9.41,25.34,25.34,0,0,0,12.95,3.45A24.94,24.94,0,0,0,223,89.7a26,26,0,0,0,9.41-9.41,25.09,25.09,0,0,0,3.5-13,24.78,24.78,0,0,0-5.22-15.4,25.66,25.66,0,0,0-6.08-5.73,25.25,25.25,0,0,0-14.42-4.42A25.51,25.51,0,0,0,197.27,45.21Z"></path> <path class="cls-4" d="M306.75,96.78,294.39,78.1q-2.81.18-4.29.18H273.3V95.2a2.85,2.85,0,0,1-2.85,2.85h-.33a2.85,2.85,0,0,1-2.86-2.85V36.89H290.1q11.46,0,17.72,5.3t6.25,15q0,7.62-3.67,12.69A19.19,19.19,0,0,1,299.9,77l11.57,16.6a2.85,2.85,0,0,1-2.34,4.48h0A2.88,2.88,0,0,1,306.75,96.78ZM290.1,72.85q8.75,0,13.47-4t4.73-11.5q0-7.35-4.73-11.2T290.1,42.32H273.3V72.85Z"></path> <path class="cls-4" d="M382.45,40.87a13.51,13.51,0,0,1,5.21,11.25,13.87,13.87,0,0,1-3,9.1A14.32,14.32,0,0,1,376.2,66q6.74.87,10.5,5a14.86,14.86,0,0,1,3.76,10.41q0,7.88-5.86,12.25t-16.28,4.37h-25.9V36.81h25.64Q377.24,36.81,382.45,40.87ZM377.86,61a9.75,9.75,0,0,0,3.59-8.09A9.43,9.43,0,0,0,377.86,45q-3.58-2.81-10.06-2.71H348.46V63.84H367.8Q374.27,63.84,377.86,61ZM380,89.52a10.08,10.08,0,0,0,4.33-8.7A9.88,9.88,0,0,0,380,72.24q-4.38-3.06-12.16-3.06H348.46V92.63H367.8Q375.68,92.63,380,89.52Z"></path> <path class="cls-4" d="M443,43.24a30.68,30.68,0,0,0-8.4-1.27q-6.3,0-10.11,2.49a7.73,7.73,0,0,0-3.81,6.78,8.89,8.89,0,0,0,2.1,6.13,14.94,14.94,0,0,0,5.17,3.72,80.56,80.56,0,0,0,8.4,3,71.71,71.71,0,0,1,10,3.64,17.7,17.7,0,0,1,6.48,5.2,14.23,14.23,0,0,1,2.67,9,14.28,14.28,0,0,1-2.76,8.67A17.52,17.52,0,0,1,445,96.43a29.73,29.73,0,0,1-11.46,2.06A31.93,31.93,0,0,1,421,96a34.13,34.13,0,0,1-8.7-5.17,2.82,2.82,0,0,1-.65-3.54h0a2.81,2.81,0,0,1,4.16-.85,30.17,30.17,0,0,0,7.07,4.14,27.39,27.39,0,0,0,10.67,2.27q7,0,11.12-2.84a8.86,8.86,0,0,0,4.11-7.66,9.36,9.36,0,0,0-2.1-6.3,14,14,0,0,0-5.16-3.76c-2.05-.87-4.9-1.89-8.58-3.06a86.35,86.35,0,0,1-10-3.63,16.8,16.8,0,0,1-6.39-5.08A13.87,13.87,0,0,1,414,51.68a13.21,13.21,0,0,1,2.62-8.14A16.65,16.65,0,0,1,424,38.16a29.49,29.49,0,0,1,10.94-1.88,35.32,35.32,0,0,1,10,1.49,37.37,37.37,0,0,1,6.41,2.53,2.82,2.82,0,0,1,1.25,3.79l-.08.17a2.82,2.82,0,0,1-3.82,1.2A31.82,31.82,0,0,0,443,43.24Z"></path> </g> </g> </svg> 