<?xml version="1.0" encoding="utf-8"?>
<!-- Generator: Adobe Illustrator 22.0.1, SVG Export Plug-In . SVG Version: 6.00 Build 0)  -->
<svg version="1.1" id="Layer_1" xmlns="http://www.w3.org/2000/svg" xmlns:xlink="http://www.w3.org/1999/xlink" x="0px" y="0px"
	 viewBox="0 0 465.1 465.1" style="enable-background:new 0 0 465.1 465.1;" xml:space="preserve">
<style type="text/css">
	.st0{fill:url(#SVGID_1_);}
	.st1{fill:url(#SVGID_2_);}
	.st2{fill:url(#SVGID_3_);}
	.st3{fill:url(#SVGID_4_);}
	.st4{fill:url(#SVGID_5_);}
	.st5{fill:url(#SVGID_6_);}
	.st6{fill:#FFFFFF;}
	.st7{fill:#33ccff;}
	.st8{fill:#0099CC;}
	.st9{fill:#33CAFF;}
	.st10{opacity:5.000000e-02;fill:#F8F9F9;}
	.st11{fill:#00FFCA;}
	.st12{fill:#F5F5F5;}
	.st13{fill:#F2F2F2;}
	.st14{opacity:0.9;fill:#00FFFF;}
	.st15{fill:#15EBD6;}
	.st16{fill:#FFDB15;}
	.st17{fill:#FF99FF;}
	.st18{fill:#3366FF;}
	.st19{fill:#D1D1D1;}
	.st20{opacity:0.3;fill:#15EBD6;}
	.st21{fill:#333333;}
	.st22{fill:#FF6666;}
	.st23{opacity:0.1;fill:#485F64;}
	.st24{opacity:0.2;fill:#485F64;}
	.st25{opacity:5.000000e-02;fill:#485F64;}
	.st26{fill:#485F64;}
	.st27{opacity:0.95;fill:#485F64;}
	.st28{opacity:0.9;fill:#485F64;}
	.st29{opacity:0.7;fill:#485F64;}
	.st30{opacity:0.6;fill:#485F64;}
	.st31{opacity:0.8;fill:#485F64;}
	.st32{opacity:0.3;fill:#485F64;}
	.st33{opacity:0.5;fill:#485F64;}
	.st34{opacity:0.4;fill:#485F64;}
	.st35{fill:url(#SVGID_7_);}
	.st36{fill:url(#SVGID_8_);}
	.st37{fill:url(#SVGID_9_);}
	.st38{fill:url(#SVGID_10_);}
	.st39{fill:url(#SVGID_11_);}
	.st40{fill:url(#SVGID_12_);}
	.st41{fill:url(#SVGID_13_);}
	.st42{fill:url(#SVGID_14_);}
	.st43{fill:#9C9C9C;}
	.st44{fill:#221F1F;}
	.st45{fill:#06BC65;}
	.st46{fill:#1E1E1E;}
	.st47{fill:#FFFF5A;}
	.st48{fill:#F05A2A;}
	.st49{fill:#D661AA;}
	.st50{fill:#F7EA2F;}
	.st51{fill:#26A7DF;}
	.st52{fill:#EFE92B;}
	.st53{fill:#F9A0DC;}
	.st54{fill:#FF3951;}
	.st55{fill:#00FFCC;}
	.st56{clip-path:url(#SVGID_16_);}
	.st57{clip-path:url(#SVGID_18_);}
	.st58{fill:#FFC600;}
	.st59{clip-path:url(#SVGID_20_);}
	.st60{clip-path:url(#SVGID_22_);}
	.st61{clip-path:url(#SVGID_24_);}
	.st62{clip-path:url(#SVGID_26_);}
	.st63{fill:#0078BF;}
	.st64{clip-path:url(#SVGID_28_);}
	.st65{clip-path:url(#SVGID_30_);}
	.st66{clip-path:url(#SVGID_32_);}
	.st67{clip-path:url(#SVGID_34_);}
	.st68{clip-path:url(#SVGID_36_);}
	.st69{clip-path:url(#SVGID_38_);}
</style>
<path class="st7" d="M415.1,465.1H50c-27.6,0-50-22.4-50-50V50C0,22.4,22.4,0,50,0h365.1c27.6,0,50,22.4,50,50v365.1
	C465.1,442.7,442.7,465.1,415.1,465.1z"/>
<g>
	<path class="st6" d="M304.8,305.3c-5.3,4-10.3,8.4-15.1,13c0,0.1-0.1,0.1-0.1,0.2c-1,1.1-2.1,2.1-3.1,3.1c-2.3,2.4-4.5,4.8-6.6,7.3
		c-2.4,3.2-4.8,6.3-7.4,9.3c-20.1,23.5-46.9,41.1-77.4,50c13.9,3.9,28.8,5.9,44.9,6c0.3,0,0.7,0,1,0c1.7,0,3.3-0.1,5-0.1
		c17.1-0.5,32.9-3.3,47.4-8.6c15.9-5.8,29.7-14.1,41.5-25.1c11.8-11,21.3-24.2,28.6-39.8c6.4-13.9,10.7-29.2,12.7-46.1
		C349.6,278.9,325.3,289.7,304.8,305.3z"/>
	<path class="st6" d="M359.4,134.6c-3.9-7-8.4-13.4-13.4-19.3c-4.9-5.7-10.3-10.9-16.2-15.6c-12-9.4-25.5-16.5-40.7-21.4
		C274,73.4,257.9,71,240.9,71c-23.7,0-44.9,4.2-63.8,12.5c-9.4,4.2-18,9.1-26,14.9c0,0,0,0-0.1,0c-0.4,0.3-0.9,0.7-1.3,1
		c-0.5,0.4-1,0.8-1.6,1.2c-1.1,0.8-2.2,1.7-3.2,2.6c-0.5,0.4-1,0.8-1.5,1.2c-1.1,0.9-2.1,1.8-3.2,2.8c-0.4,0.4-0.9,0.8-1.3,1.2
		c-1.5,1.3-2.9,2.7-4.3,4.1c-0.1,0.1-0.2,0.2-0.3,0.3c-1.7,1.7-3.4,3.5-5,5.4c-1.3,1.5-2.6,3.1-3.9,4.6c-0.4,0.5-0.9,1.1-1.3,1.6
		l0,0v0c-10.5,13.3-18.7,28.4-24.7,45.4C92.5,189.6,89,211,89,234.1c0,22.5,3.5,43.5,10.4,62.9c6.9,19.5,16.9,36.4,29.9,50.8
		c6.6,7.4,14.1,13.9,22.3,19.7c34.3-0.4,66-11.5,92-30.1c-0.9,0-1.8,0.1-2.7,0.1c-15.3,0-28.3-3-38.9-8.9
		c-10.7-5.9-19.3-13.8-26-23.6c-6.6-9.8-11.5-20.8-14.5-33.1c-3-12.3-4.5-24.9-4.5-37.9c0-13.6,1.5-26.7,4.5-39.4
		c1.7-7.1,4-13.7,6.8-20c0.5-1.2,1.1-2.4,1.7-3.6c0-0.1,0.1-0.1,0.1-0.2c0.6-1.1,1.1-2.2,1.7-3.3c0.2-0.3,0.4-0.7,0.6-1
		c0.5-0.8,0.9-1.7,1.4-2.5c0.7-1.2,1.4-2.3,2.2-3.5c6.6-10,15.3-17.9,26-23.8c10.7-5.9,23.6-8.9,38.9-8.9c0.7,0,1.4,0,2.1,0v0
		c7.6,0.2,14.9,1.6,21.9,4.1c7.6,2.7,14.5,6.6,20.6,11.5c6.1,4.9,11.1,10.6,15.1,17.1l0,0c0,0.1,0.1,0.1,0.1,0.2
		c8,13,21.9,21.2,37.2,21.2h36.3C372.1,164.3,367.2,148.4,359.4,134.6z"/>
</g>
</svg>
