<?xml version="1.0" encoding="UTF-8"?>
<!DOCTYPE svg PUBLIC "-//W3C//DTD SVG 1.1//EN" "http://www.w3.org/Graphics/SVG/1.1/DTD/svg11.dtd">
<!-- Creator: CorelDRAW X7 -->
<svg xmlns="http://www.w3.org/2000/svg" xml:space="preserve" width="299px" height="73px" version="1.1" style="shape-rendering:geometricPrecision; text-rendering:geometricPrecision; image-rendering:optimizeQuality; fill-rule:evenodd; clip-rule:evenodd"
viewBox="0 0 299 73"
 xmlns:xlink="http://www.w3.org/1999/xlink">
 <defs>
  <style type="text/css">
   <![CDATA[
    .str0 {stroke:#7353C2;stroke-width:0.128784}
    .fil2 {fill:none}
    .fil1 {fill:#7353C2}
    .fil0 {fill:#7353C2;fill-rule:nonzero}
   ]]>
  </style>
 </defs>
 <g id="Layer_x0020_1">
  <metadata id="CorelCorpID_0Corel-Layer"/>
  <path class="fil0" d="M85 34c4,0 7,3 7,8 0,4 -3,7 -7,7 -4,0 -8,-3 -8,-7 0,-5 4,-8 8,-8zm-14 -16l0 37 5 0 1 -4c2,3 5,4 8,4 8,0 13,-5 13,-13 0,-9 -5,-14 -13,-14 -2,0 -7,2 -8,4l0 -14 -6 0 0 0z"/>
  <polygon id="_1" class="fil0" points="103,18 103,55 109,55 109,18 "/>
  <path id="_2" class="fil0" d="M127 28c-8,0 -13,6 -13,14 0,7 5,13 13,13 8,0 13,-6 13,-13 0,-8 -5,-14 -13,-14zm0 6c4,0 7,4 7,8 0,4 -2,7 -7,7 -5,0 -7,-3 -7,-7 0,-4 2,-8 7,-8z"/>
  <path id="_3" class="fil0" d="M162 47c-1,2 -3,2 -5,2 -4,0 -8,-2 -8,-7 0,-5 4,-8 8,-8 2,0 3,1 5,2l4 -4c-3,-3 -6,-4 -9,-4 -8,0 -14,5 -14,14 0,9 6,13 14,13 4,0 7,-1 10,-4l-5 -4 0 0z"/>
  <polygon id="_4" class="fil0" points="169,18 169,55 176,55 176,43 186,55 193,55 193,54 181,41 192,29 192,29 184,29 176,39 176,18 "/>
  <path id="_5" class="fil0" d="M207 28c-8,0 -13,6 -13,14 0,7 5,13 13,13 8,0 13,-6 13,-13 0,-8 -5,-14 -13,-14zm0 6c4,0 7,4 7,8 0,4 -2,7 -7,7 -4,0 -7,-3 -7,-7 0,-4 3,-8 7,-8z"/>
  <path id="_6" class="fil0" d="M250 55l0 -14c0,-8 -5,-12 -11,-12 -3,0 -6,1 -8,3l-1 -3 -5 0 0 26 6 0 0 -13c0,-4 3,-8 7,-8 4,0 6,3 6,7l0 14 6 0 0 0z"/>
  <path id="_7" class="fil0" d="M262 29l0 26 -6 0 0 -26 6 0zm-7 -7c0,5 7,5 7,0 0,-5 -7,-5 -7,0z"/>
  <polygon id="_8" class="fil0" points="280,38 275,29 267,29 267,29 276,42 267,54 267,55 274,55 280,46 285,55 293,55 293,54 284,42 293,29 293,29 285,29 "/>
  <path class="fil1" d="M30 40c0,-1 0,-2 -2,-3l-19 -14c0,1 0,1 0,2l0 24c0,1 0,2 1,2l21 13c0,0 1,0 1,0l-2 -24 0 0z"/>
  <path class="fil1" d="M36 37c-1,1 -1,2 -2,3l-2 24c1,0 1,0 2,0l21 -13c1,0 1,-1 1,-2l0 -24c0,-1 0,-1 0,-2l-20 14 0 0z"/>
  <path class="fil1" d="M55 23l-21 -13c-1,0 -2,0 -3,0l-21 13c0,0 -1,0 -1,0l22 11c1,0 2,0 3,0l22 -11c0,0 -1,0 -1,0l0 0 0 0zm-23 6c-2,0 -3,-1 -3,-3 0,-2 1,-3 3,-3 2,0 4,1 4,3l0 0c0,2 -2,3 -4,3l0 0z"/>
  <path class="fil2 str0" d="M31 6l-25 14c0,1 -1,2 -1,3l0 28c0,1 1,2 1,2l25 15c1,0 2,0 3,0l24 -15c1,0 2,-1 2,-2l0 -28c0,-1 -1,-2 -2,-3l-24 -14c-1,-1 -2,-1 -3,0z"/>
 </g>
</svg>
