<svg width="311" height="92" viewBox="0 0 311 92" fill="none" xmlns="http://www.w3.org/2000/svg">
<path d="M130.905 50.5046C131.506 50.5046 132.02 50.7415 132.449 51.2153C132.921 51.6461 133.157 52.1845 133.157 52.8306C133.157 53.4336 132.921 53.9505 132.449 54.3813C132.02 54.812 131.506 55.0274 130.905 55.0274H109.739C109.095 55.0274 108.538 54.7905 108.066 54.3167C107.594 53.8428 107.358 53.2829 107.358 52.6368V20.5249C107.358 19.8787 107.594 19.3188 108.066 18.845C108.538 18.3281 109.095 18.0696 109.739 18.0696H130.905C131.506 18.0696 132.02 18.3065 132.449 18.7804C132.921 19.2111 133.157 19.728 133.157 20.331C133.157 20.9341 132.921 21.4725 132.449 21.9463C132.02 22.3771 131.506 22.5924 130.905 22.5924H112.183V34.2871H128.975C129.576 34.2871 130.09 34.5025 130.519 34.9332C130.991 35.364 131.227 35.9024 131.227 36.5485C131.227 37.1515 131.012 37.69 130.583 38.1638C130.155 38.5945 129.618 38.8099 128.975 38.8099H112.183V50.5046H130.905Z" fill="url(#paint0_linear)"/>
<path d="M145.767 22.5924V34.2871H161.979C162.58 34.2871 163.116 34.5025 163.588 34.9332C164.06 35.364 164.295 35.9024 164.295 36.5485C164.295 37.1515 164.06 37.69 163.588 38.1638C163.159 38.5945 162.623 38.8099 161.979 38.8099H145.767V52.8952C145.767 53.5413 145.531 54.1013 145.059 54.5751C144.587 55.0489 144.008 55.2858 143.322 55.2858C142.679 55.2858 142.121 55.0489 141.649 54.5751C141.177 54.1013 140.942 53.5413 140.942 52.8952V20.5249C140.942 19.8787 141.177 19.3188 141.649 18.845C142.121 18.3281 142.679 18.0696 143.322 18.0696H163.845C164.446 18.0696 164.96 18.3065 165.389 18.7804C165.861 19.2111 166.097 19.728 166.097 20.331C166.097 20.9341 165.882 21.4725 165.453 21.9463C165.025 22.3771 164.488 22.5924 163.845 22.5924H145.767Z" fill="url(#paint1_linear)"/>
<path d="M175.426 17.8112C176.069 17.8112 176.626 18.0481 177.098 18.5219C177.613 18.9957 177.87 19.5772 177.87 20.2664V52.8952C177.87 53.5413 177.634 54.1013 177.163 54.5751C176.691 55.0489 176.112 55.2858 175.426 55.2858C174.782 55.2858 174.225 55.0489 173.753 54.5751C173.281 54.1013 173.045 53.5413 173.045 52.8952V20.2664C173.045 19.6203 173.281 19.0603 173.753 18.5865C174.225 18.0696 174.782 17.8112 175.426 17.8112Z" fill="url(#paint2_linear)"/>
<path d="M216.665 52.8952C216.665 53.5413 216.429 54.1013 215.957 54.5751C215.528 55.0489 214.949 55.2858 214.22 55.2858C213.534 55.2858 212.955 55.0705 212.483 54.6397C212.054 54.209 211.84 53.6275 211.84 52.8952V51.2799C211.84 48.437 211.518 46.3479 210.875 45.0126C210.274 43.6773 209.416 42.622 208.301 41.8466C207.229 41.0282 205.685 40.619 203.669 40.619H192.796V52.8952C192.796 53.5413 192.56 54.1013 192.088 54.5751C191.617 55.0489 191.038 55.2858 190.351 55.2858C189.708 55.2858 189.15 55.0489 188.679 54.5751C188.207 54.1013 187.971 53.5413 187.971 52.8952V20.5249C187.971 19.8787 188.207 19.3188 188.679 18.845C189.15 18.3281 189.708 18.0696 190.351 18.0696H202.64C207.443 18.0696 211.089 19.1034 213.577 21.171C215.893 23.1093 217.029 25.6507 216.986 28.7951C216.986 30.8196 216.407 32.7364 215.249 34.5456C214.134 36.3116 212.397 37.5823 210.038 38.3576C212.569 39.0037 214.413 40.8559 215.571 43.9142C216.343 45.8956 216.708 48.0924 216.665 50.5046V52.8952ZM202.318 36.0316C205.277 36.0316 207.658 35.4717 209.459 34.3517C211.261 33.1887 212.161 31.4657 212.161 29.1828C212.161 27.0722 211.454 25.4784 210.038 24.4016C208.365 23.1955 205.706 22.5924 202.061 22.5924H192.796V36.0316H202.318Z" fill="url(#paint3_linear)"/>
<path d="M227.859 17.8112C228.503 17.8112 229.06 18.0481 229.532 18.5219C230.047 18.9957 230.304 19.5772 230.304 20.2664V52.8952C230.304 53.5413 230.068 54.1013 229.596 54.5751C229.124 55.0489 228.545 55.2858 227.859 55.2858C227.216 55.2858 226.658 55.0489 226.186 54.5751C225.715 54.1013 225.479 53.5413 225.479 52.8952V20.2664C225.479 19.6203 225.715 19.0603 226.186 18.5865C226.658 18.0696 227.216 17.8112 227.859 17.8112Z" fill="url(#paint4_linear)"/>
<path d="M266.847 48.437C267.104 48.3078 267.49 48.2432 268.005 48.2432C268.519 48.2432 268.97 48.4586 269.356 48.8893C269.742 49.277 269.935 49.7293 269.935 50.2461C269.935 51.1938 269.527 51.883 268.712 52.3137C267.083 53.2613 265.324 54.0367 263.437 54.6397C261.593 55.2428 259.341 55.5443 256.682 55.5443C254.065 55.5443 251.621 55.1135 249.347 54.2521C247.117 53.3906 245.187 52.1414 243.557 50.5046C240.04 47.0586 238.282 42.4066 238.282 36.5485C238.282 30.7335 240.04 26.0814 243.557 22.5924C246.945 19.2326 251.342 17.5527 256.746 17.5527C259.362 17.5527 261.593 17.8758 263.437 18.5219C265.324 19.168 266.761 19.7711 267.747 20.331C268.734 20.8479 269.334 21.2787 269.549 21.6233C269.806 21.9248 269.935 22.334 269.935 22.8509C269.935 23.3678 269.742 23.8416 269.356 24.2723C268.97 24.66 268.519 24.8538 268.005 24.8538C267.533 24.8538 267.147 24.7892 266.847 24.66C265.431 23.8847 263.973 23.2816 262.472 22.8509C261.014 22.3771 259.191 22.1401 257.003 22.1401C254.816 22.1401 252.821 22.5278 251.02 23.3032C249.262 24.0354 247.782 25.0477 246.581 26.3399C244.222 28.9244 243.064 32.3272 243.107 36.5485C243.107 40.7698 244.265 44.1727 246.581 46.7571C249.154 49.557 252.693 50.9569 257.196 50.9569C259.255 50.9569 261.014 50.7415 262.472 50.3108C263.973 49.8369 265.431 49.2124 266.847 48.437Z" fill="url(#paint5_linear)"/>
<path d="M307.185 51.8614C307.357 52.2922 307.443 52.7445 307.443 53.2183C307.443 53.649 307.228 54.1013 306.799 54.5751C306.413 55.0489 305.748 55.2858 304.805 55.2858C303.904 55.2858 303.239 54.7905 302.81 53.7998L299.401 45.5941H281.451L278.105 53.7998C277.677 54.7905 276.99 55.2858 276.047 55.2858C275.146 55.2858 274.481 55.0489 274.052 54.5751C273.666 54.1013 273.473 53.649 273.473 53.2183C273.473 52.7445 273.559 52.2922 273.731 51.8614L287.112 20.008C287.713 18.5434 288.742 17.8112 290.201 17.8112H290.715C292.131 17.8112 293.16 18.5434 293.803 20.008L307.185 51.8614ZM297.599 41.2005L290.458 23.9493L283.317 41.2005H297.599Z" fill="url(#paint6_linear)"/>
<path d="M112.7 70.7891C111.917 70.3999 111.077 70.2053 110.181 70.2053C109.699 70.2053 109.329 70.3091 109.07 70.5167C108.812 70.7243 108.683 71.001 108.683 71.347C108.683 71.961 109.126 72.3935 110.013 72.6443C111.219 72.9816 112.067 73.3924 112.558 73.8767C113.058 74.361 113.307 74.988 113.307 75.7578C113.307 76.6486 113.015 77.3318 112.429 77.8075C111.843 78.2745 110.995 78.508 109.884 78.508C108.756 78.508 107.744 78.227 106.849 77.6648L107.301 76.2118C108.127 76.774 109.001 77.0551 109.923 77.0551C110.431 77.0551 110.814 76.947 111.073 76.7308C111.34 76.5059 111.473 76.1902 111.473 75.7837C111.473 75.4118 111.365 75.1178 111.15 74.9016C110.943 74.6853 110.564 74.4951 110.013 74.3308C108.911 74.0108 108.11 73.6086 107.611 73.1243C107.12 72.6399 106.874 72.0475 106.874 71.347C106.874 70.5686 107.159 69.9459 107.727 69.4789C108.304 69.0118 109.109 68.7783 110.143 68.7783C111.21 68.7783 112.188 68.9816 113.075 69.388L112.7 70.7891Z" fill="#5B0CA5"/>
<path d="M124.887 71.9826H124.861L122.794 76.0043H121.166L119.1 71.9826H119.074V78.3783H117.356V68.908H119.164L121.967 74.4864H121.993L124.796 68.908H126.656V78.3783H124.887V71.9826Z" fill="#5B0CA5"/>
<path d="M130.376 78.3783L133.644 68.908H135.582L138.863 78.3783H136.925L136.253 76.0951H132.933L132.249 78.3783H130.376ZM133.334 74.707H135.84L134.6 70.5037H134.574L133.334 74.707Z" fill="#5B0CA5"/>
<path d="M144.364 74.681V78.3783H142.581V68.9729C143.459 68.8432 144.407 68.7783 145.423 68.7783C146.689 68.7783 147.636 69.0162 148.265 69.4918C148.893 69.9589 149.208 70.6205 149.208 71.4767C149.208 72.0994 149.04 72.6443 148.704 73.1113C148.377 73.5783 147.929 73.9026 147.36 74.0843V74.1102C147.774 74.3524 148.131 74.867 148.433 75.654L149.466 78.3783H147.606L146.624 75.6929C146.469 75.2778 146.293 75.0053 146.094 74.8756C145.896 74.7459 145.556 74.681 145.074 74.681H144.364ZM144.364 73.3059H145.126C146.659 73.3059 147.425 72.7567 147.425 71.6583C147.425 70.681 146.715 70.1924 145.294 70.1924C144.94 70.1924 144.63 70.2183 144.364 70.2702V73.3059Z" fill="#5B0CA5"/>
<path d="M159.777 68.908V70.4129H157.077V78.3783H155.243V70.4129H152.543V68.908H159.777Z" fill="#5B0CA5"/>
<path d="M174.693 70.2183C173.633 70.2183 172.807 70.5253 172.212 71.1394C171.618 71.7535 171.321 72.588 171.321 73.6432C171.321 74.6983 171.631 75.5329 172.251 76.147C172.88 76.761 173.724 77.068 174.783 77.068C175.317 77.068 175.791 76.9816 176.204 76.8086V74.0843H173.582V72.6962H177.922V77.8205C176.906 78.2789 175.804 78.508 174.615 78.508C173.056 78.508 171.812 78.0713 170.882 77.1978C169.952 76.3156 169.487 75.1308 169.487 73.6432C169.487 72.147 169.935 70.9621 170.83 70.0886C171.726 69.2151 172.957 68.7783 174.525 68.7783C175.679 68.7783 176.691 69.0551 177.56 69.6086L177.018 70.9189C176.243 70.4518 175.468 70.2183 174.693 70.2183Z" fill="#5B0CA5"/>
<path d="M181.511 78.3783L184.78 68.908H186.717L189.998 78.3783H188.061L187.389 76.0951H184.069L183.384 78.3783H181.511ZM184.469 74.707H186.976L185.735 70.5037H185.71L184.469 74.707Z" fill="#5B0CA5"/>
<path d="M201.247 71.9826H201.222L199.155 76.0043H197.527L195.46 71.9826H195.435V78.3783H193.716V68.908H195.525L198.328 74.4864H198.354L201.157 68.908H203.017V78.3783H201.247V71.9826Z" fill="#5B0CA5"/>
<path d="M209.191 70.374V72.6962H212.976V74.0843H209.191V76.9124H213.234V78.3783H207.382V68.908H213.234V70.374H209.191Z" fill="#5B0CA5"/>
<path d="M228.171 70.2443C227.198 70.2443 226.423 70.5513 225.846 71.1653C225.269 71.7708 224.98 72.5967 224.98 73.6432C224.98 74.681 225.277 75.507 225.871 76.121C226.466 76.7351 227.232 77.0421 228.171 77.0421C228.954 77.0421 229.721 76.8043 230.47 76.3286L231.013 77.6648C230.143 78.227 229.14 78.508 228.003 78.508C226.53 78.508 225.35 78.0713 224.463 77.1978C223.576 76.3156 223.133 75.1308 223.133 73.6432C223.133 72.147 223.568 70.9621 224.438 70.0886C225.307 69.2151 226.496 68.7783 228.003 68.7783C229.14 68.7783 230.143 69.0594 231.013 69.6216L230.47 70.9578C229.721 70.4821 228.954 70.2443 228.171 70.2443Z" fill="#5B0CA5"/>
<path d="M235.567 70.1016C236.428 69.2194 237.574 68.7783 239.003 68.7783C240.433 68.7783 241.574 69.2194 242.427 70.1016C243.288 70.9751 243.718 72.1556 243.718 73.6432C243.718 75.1308 243.288 76.3156 242.427 77.1978C241.574 78.0713 240.433 78.508 239.003 78.508C237.574 78.508 236.428 78.0713 235.567 77.1978C234.715 76.3156 234.288 75.1308 234.288 73.6432C234.288 72.1556 234.715 70.9751 235.567 70.1016ZM236.911 76.134C237.427 76.7221 238.125 77.0162 239.003 77.0162C239.882 77.0162 240.579 76.7221 241.096 76.134C241.613 75.5372 241.871 74.707 241.871 73.6432C241.871 72.5794 241.613 71.7535 241.096 71.1653C240.579 70.5686 239.882 70.2702 239.003 70.2702C238.125 70.2702 237.427 70.5686 236.911 71.1653C236.394 71.7535 236.136 72.5794 236.136 73.6432C236.136 74.707 236.394 75.5372 236.911 76.134Z" fill="#5B0CA5"/>
<path d="M247.501 78.3783V68.908H249.271L253.159 75.3556H253.185V68.908H254.955V78.3783H253.185L249.297 71.9308H249.271V78.3783H247.501Z" fill="#5B0CA5"/>
<path d="M266.236 68.908V70.4129H263.537V78.3783H261.702V70.4129H259.002V68.908H266.236Z" fill="#5B0CA5"/>
<path d="M272.062 74.681V78.3783H270.279V68.9729C271.158 68.8432 272.105 68.7783 273.121 68.7783C274.387 68.7783 275.334 69.0162 275.963 69.4918C276.592 69.9589 276.906 70.6205 276.906 71.4767C276.906 72.0994 276.738 72.6443 276.402 73.1113C276.075 73.5783 275.627 73.9026 275.059 74.0843V74.1102C275.472 74.3524 275.829 74.867 276.131 75.654L277.164 78.3783H275.304L274.322 75.6929C274.167 75.2778 273.991 75.0053 273.793 74.8756C273.595 74.7459 273.255 74.681 272.772 74.681H272.062ZM272.062 73.3059H272.824C274.357 73.3059 275.123 72.7567 275.123 71.6583C275.123 70.681 274.413 70.1924 272.992 70.1924C272.639 70.1924 272.329 70.2183 272.062 70.2702V73.3059Z" fill="#5B0CA5"/>
<path d="M280.499 78.3783L283.767 68.908H285.705L288.986 78.3783H287.048L286.376 76.0951H283.056L282.372 78.3783H280.499ZM283.457 74.707H285.963L284.723 70.5037H284.697L283.457 74.707Z" fill="#5B0CA5"/>
<path d="M296.769 70.2443C295.796 70.2443 295.021 70.5513 294.444 71.1653C293.867 71.7708 293.579 72.5967 293.579 73.6432C293.579 74.681 293.876 75.507 294.47 76.121C295.064 76.7351 295.831 77.0421 296.769 77.0421C297.553 77.0421 298.319 76.8043 299.069 76.3286L299.611 77.6648C298.741 78.227 297.738 78.508 296.601 78.508C295.129 78.508 293.949 78.0713 293.062 77.1978C292.175 76.3156 291.731 75.1308 291.731 73.6432C291.731 72.147 292.166 70.9621 293.036 70.0886C293.906 69.2151 295.094 68.7783 296.601 68.7783C297.738 68.7783 298.741 69.0594 299.611 69.6216L299.069 70.9578C298.319 70.4821 297.553 70.2443 296.769 70.2443Z" fill="#5B0CA5"/>
<path d="M310.379 68.908V70.4129H307.68V78.3783H305.845V70.4129H303.145V68.908H310.379Z" fill="#5B0CA5"/>
<path d="M46.2584 64.645L32.9116 45.4964C32.8529 45.4122 32.9442 45.3047 33.0368 45.349L46.2584 51.672L59.4801 45.349C59.5727 45.3047 59.664 45.4122 59.6053 45.4964L46.2584 64.645Z" fill="url(#paint7_linear)"/>
<path d="M46.2584 23.1318L58.449 38.5644C58.4899 38.6161 58.4704 38.6926 58.4097 38.7184L46.2584 43.8886L34.1072 38.7184C34.0465 38.6926 34.027 38.6161 34.0679 38.5644L46.2584 23.1318Z" fill="url(#paint8_linear)"/>
<path fill-rule="evenodd" clip-rule="evenodd" d="M58.5466 43.6407C60.4636 42.7239 62.346 44.9582 61.1284 46.7051L46.2584 68.0389L31.3885 46.7051C30.1708 44.9582 32.0532 42.7239 33.9703 43.6407L46.2584 49.5173L58.5466 43.6407ZM54.0207 50.1157L46.2584 53.8279L38.4961 50.1157L46.2584 61.2522L54.0207 50.1157Z" fill="#5B0CA5"/>
<path fill-rule="evenodd" clip-rule="evenodd" d="M46.2584 20L59.9426 37.3234C60.7916 38.3981 60.3875 39.9895 59.1297 40.5246L46.2584 46.0012L33.3871 40.5246C32.1294 39.9895 31.7253 38.3981 32.5742 37.3234L46.2584 20ZM37.0873 37.8722L46.2584 41.7744L55.4296 37.8722L46.2584 26.2621L37.0873 37.8722Z" fill="#5B0CA5"/>
<path d="M10.98 41.4055C10.98 40.3308 11.8512 39.4596 12.9259 39.4596H24.5352C25.6099 39.4596 26.4811 40.3308 26.4811 41.4055V41.4055C26.4811 42.4803 25.6099 43.3515 24.5352 43.3515H12.9259C11.8512 43.3515 10.98 42.4803 10.98 41.4055V41.4055Z" fill="#5B0CA5"/>
<path d="M12.9176 41.4054C12.9176 44.9878 10.0259 47.8919 6.45881 47.8919C2.89171 47.8919 0 44.9878 0 41.4054C0 37.823 2.89171 34.9189 6.45881 34.9189C10.0259 34.9189 12.9176 37.823 12.9176 41.4054Z" fill="#5B0CA5"/>
<path d="M8.71941 41.3826C8.71941 42.6364 7.70731 43.6528 6.45883 43.6528C5.21034 43.6528 4.19824 42.6364 4.19824 41.3826C4.19824 40.1287 5.21034 39.1123 6.45883 39.1123C7.70731 39.1123 8.71941 40.1287 8.71941 41.3826Z" fill="url(#paint9_linear)"/>
<path d="M81.381 44.0006C81.381 42.9259 80.5098 42.0547 79.4351 42.0547H67.8259C66.7511 42.0547 65.8799 42.9259 65.8799 44.0006V44.0006C65.8799 45.0753 66.7511 45.9466 67.8259 45.9466H79.4351C80.5098 45.9466 81.381 45.0753 81.381 44.0006V44.0006Z" fill="#5B0CA5"/>
<path d="M78.833 44.0009C78.833 47.2251 81.4355 49.8388 84.6459 49.8388C87.8563 49.8388 90.4589 47.2251 90.4589 44.0009C90.4589 40.7768 87.8563 38.1631 84.6459 38.1631C81.4355 38.1631 78.833 40.7768 78.833 44.0009Z" fill="#5B0CA5"/>
<path d="M82.7323 44.0006C82.7323 45.0753 83.5998 45.9466 84.6699 45.9466C85.74 45.9466 86.6075 45.0753 86.6075 44.0006C86.6075 42.9259 85.74 42.0547 84.6699 42.0547C83.5998 42.0547 82.7323 42.9259 82.7323 44.0006Z" fill="url(#paint10_linear)"/>
<path d="M54.8905 11.8809C53.8203 11.8809 52.9528 12.7484 52.9528 13.8185L52.9528 22.2321C52.9528 23.3022 53.8203 24.1697 54.8905 24.1697V24.1697C55.9606 24.1697 56.8281 23.3022 56.8281 22.2321L56.8281 13.8185C56.8281 12.7484 55.9606 11.8809 54.8905 11.8809V11.8809Z" fill="#5B0CA5"/>
<path d="M54.8999 14.8114C58.1103 14.8114 60.7128 12.1977 60.7128 8.97358C60.7128 5.74943 58.1103 3.13574 54.8999 3.13574C51.6895 3.13574 49.087 5.74943 49.087 8.97358C49.087 12.1977 51.6895 14.8114 54.8999 14.8114Z" fill="#5B0CA5"/>
<path d="M54.8613 10.9212C55.9315 10.9212 56.799 10.05 56.799 8.97524C56.799 7.90053 55.9315 7.0293 54.8613 7.0293C53.7912 7.0293 52.9237 7.90053 52.9237 8.97524C52.9237 10.05 53.7912 10.9212 54.8613 10.9212Z" fill="url(#paint11_linear)"/>
<path d="M38.107 9.62207C37.0369 9.62207 36.1694 10.4896 36.1694 11.5597L36.1694 21.9547C36.1694 23.0248 37.0369 23.8923 38.107 23.8923V23.8923C39.1771 23.8923 40.0447 23.0248 40.0447 21.9547L40.0447 11.5597C40.0447 10.4896 39.1771 9.62207 38.107 9.62207V9.62207Z" fill="#5B0CA5"/>
<path d="M38.107 12.2167C41.3174 12.2167 43.9199 9.603 43.9199 6.37885C43.9199 3.1547 41.3174 0.541016 38.107 0.541016C34.8966 0.541016 32.2941 3.1547 32.2941 6.37885C32.2941 9.603 34.8966 12.2167 38.107 12.2167Z" fill="#5B0CA5"/>
<path d="M38.0684 8.32646C39.1386 8.32646 40.0061 7.45523 40.0061 6.38052C40.0061 5.3058 39.1386 4.43457 38.0684 4.43457C36.9983 4.43457 36.1308 5.3058 36.1308 6.38052C36.1308 7.45523 36.9983 8.32646 38.0684 8.32646Z" fill="url(#paint12_linear)"/>
<path d="M22.6058 56.3245C22.6058 55.2498 23.4771 54.3785 24.5518 54.3785H29.0563C30.1311 54.3785 31.0023 55.2498 31.0023 56.3245V56.3245C31.0023 57.3992 30.1311 58.2704 29.0563 58.2704H24.5518C23.4771 58.2704 22.6058 57.3992 22.6058 56.3245V56.3245Z" fill="#5B0CA5"/>
<path d="M24.5435 56.3244C24.5435 59.9068 21.6518 62.8109 18.0847 62.8109C14.5176 62.8109 11.6259 59.9068 11.6259 56.3244C11.6259 52.742 14.5176 49.8379 18.0847 49.8379C21.6518 49.8379 24.5435 52.742 24.5435 56.3244Z" fill="#5B0CA5"/>
<path d="M20.3453 56.3015C20.3453 57.5554 19.3332 58.5718 18.0847 58.5718C16.8362 58.5718 15.8241 57.5554 15.8241 56.3015C15.8241 55.0477 16.8362 54.0312 18.0847 54.0312C19.3332 54.0312 20.3453 55.0477 20.3453 56.3015Z" fill="url(#paint13_linear)"/>
<path d="M46.5354 80.973C45.4653 80.973 44.5978 80.1055 44.5978 79.0353L44.5978 73.1809C44.5978 72.1108 45.4653 71.2432 46.5354 71.2432V71.2432C47.6056 71.2432 48.4731 72.1108 48.4731 73.1809L48.4731 79.0353C48.4731 80.1055 47.6056 80.973 46.5354 80.973V80.973Z" fill="#5B0CA5"/>
<path d="M46.5034 79.027C50.0705 79.027 52.9622 81.9311 52.9622 85.5135C52.9622 89.0959 50.0705 92 46.5034 92C42.9363 92 40.0446 89.0959 40.0446 85.5135C40.0446 81.9311 42.9363 79.027 46.5034 79.027Z" fill="#5B0CA5"/>
<path d="M46.4897 83.2436C47.7382 83.2436 48.7503 84.2601 48.7503 85.5139C48.7503 86.7677 47.7382 87.7842 46.4897 87.7842C45.2412 87.7842 44.2291 86.7677 44.2291 85.5139C44.2291 84.2601 45.2412 83.2436 46.4897 83.2436Z" fill="url(#paint14_linear)"/>
<defs>
<linearGradient id="paint0_linear" x1="107.358" y1="49.0207" x2="165.772" y2="-58.9653" gradientUnits="userSpaceOnUse">
<stop stop-color="#5B0CA5"/>
<stop offset="0.287293" stop-color="#521BAC"/>
<stop offset="0.651934" stop-color="#00A3EE"/>
<stop offset="0.773481" stop-color="#523DC5"/>
<stop offset="1" stop-color="#7B0BB1"/>
</linearGradient>
<linearGradient id="paint1_linear" x1="107.358" y1="49.0207" x2="165.772" y2="-58.9653" gradientUnits="userSpaceOnUse">
<stop stop-color="#5B0CA5"/>
<stop offset="0.287293" stop-color="#521BAC"/>
<stop offset="0.651934" stop-color="#00A3EE"/>
<stop offset="0.773481" stop-color="#523DC5"/>
<stop offset="1" stop-color="#7B0BB1"/>
</linearGradient>
<linearGradient id="paint2_linear" x1="107.358" y1="49.0207" x2="165.772" y2="-58.9653" gradientUnits="userSpaceOnUse">
<stop stop-color="#5B0CA5"/>
<stop offset="0.287293" stop-color="#521BAC"/>
<stop offset="0.651934" stop-color="#00A3EE"/>
<stop offset="0.773481" stop-color="#523DC5"/>
<stop offset="1" stop-color="#7B0BB1"/>
</linearGradient>
<linearGradient id="paint3_linear" x1="107.358" y1="49.0207" x2="165.772" y2="-58.9653" gradientUnits="userSpaceOnUse">
<stop stop-color="#5B0CA5"/>
<stop offset="0.287293" stop-color="#521BAC"/>
<stop offset="0.651934" stop-color="#00A3EE"/>
<stop offset="0.773481" stop-color="#523DC5"/>
<stop offset="1" stop-color="#7B0BB1"/>
</linearGradient>
<linearGradient id="paint4_linear" x1="107.358" y1="49.0207" x2="165.772" y2="-58.9653" gradientUnits="userSpaceOnUse">
<stop stop-color="#5B0CA5"/>
<stop offset="0.287293" stop-color="#521BAC"/>
<stop offset="0.651934" stop-color="#00A3EE"/>
<stop offset="0.773481" stop-color="#523DC5"/>
<stop offset="1" stop-color="#7B0BB1"/>
</linearGradient>
<linearGradient id="paint5_linear" x1="107.358" y1="49.0207" x2="165.772" y2="-58.9653" gradientUnits="userSpaceOnUse">
<stop stop-color="#5B0CA5"/>
<stop offset="0.287293" stop-color="#521BAC"/>
<stop offset="0.651934" stop-color="#00A3EE"/>
<stop offset="0.773481" stop-color="#523DC5"/>
<stop offset="1" stop-color="#7B0BB1"/>
</linearGradient>
<linearGradient id="paint6_linear" x1="107.358" y1="49.0207" x2="165.772" y2="-58.9653" gradientUnits="userSpaceOnUse">
<stop stop-color="#5B0CA5"/>
<stop offset="0.287293" stop-color="#521BAC"/>
<stop offset="0.651934" stop-color="#00A3EE"/>
<stop offset="0.773481" stop-color="#523DC5"/>
<stop offset="1" stop-color="#7B0BB1"/>
</linearGradient>
<linearGradient id="paint7_linear" x1="32.6949" y1="58.1798" x2="48.7107" y2="71.1243" gradientUnits="userSpaceOnUse">
<stop offset="0.0110497" stop-color="#0066DF"/>
<stop offset="0.695765" stop-color="#00DAEF"/>
<stop offset="1" stop-color="#0085E3"/>
</linearGradient>
<linearGradient id="paint8_linear" x1="33.9867" y1="36.9924" x2="50.2836" y2="48.1648" gradientUnits="userSpaceOnUse">
<stop offset="0.0110497" stop-color="#0066DF"/>
<stop offset="0.695765" stop-color="#00DAEF"/>
<stop offset="1" stop-color="#0085E3"/>
</linearGradient>
<linearGradient id="paint9_linear" x1="6.45883" y1="39.1123" x2="6.45883" y2="43.6528" gradientUnits="userSpaceOnUse">
<stop stop-color="#D6C3FF"/>
<stop offset="0.458564" stop-color="#B7C6FD"/>
<stop offset="1" stop-color="#00DAEF"/>
</linearGradient>
<linearGradient id="paint10_linear" x1="84.6699" y1="42.0547" x2="84.6699" y2="45.9466" gradientUnits="userSpaceOnUse">
<stop stop-color="#D6C3FF"/>
<stop offset="0.458564" stop-color="#B7C6FD"/>
<stop offset="1" stop-color="#00DAEF"/>
</linearGradient>
<linearGradient id="paint11_linear" x1="52.9237" y1="8.97524" x2="56.799" y2="8.97524" gradientUnits="userSpaceOnUse">
<stop stop-color="#D6C3FF"/>
<stop offset="0.458564" stop-color="#B7C6FD"/>
<stop offset="1" stop-color="#00DAEF"/>
</linearGradient>
<linearGradient id="paint12_linear" x1="36.1308" y1="6.38052" x2="40.0061" y2="6.38052" gradientUnits="userSpaceOnUse">
<stop stop-color="#D6C3FF"/>
<stop offset="0.458564" stop-color="#B7C6FD"/>
<stop offset="1" stop-color="#00DAEF"/>
</linearGradient>
<linearGradient id="paint13_linear" x1="18.0847" y1="54.0312" x2="18.0847" y2="58.5718" gradientUnits="userSpaceOnUse">
<stop stop-color="#D6C3FF"/>
<stop offset="0.458564" stop-color="#B7C6FD"/>
<stop offset="1" stop-color="#00DAEF"/>
</linearGradient>
<linearGradient id="paint14_linear" x1="44.2291" y1="85.5139" x2="48.7503" y2="85.5139" gradientUnits="userSpaceOnUse">
<stop stop-color="#D6C3FF"/>
<stop offset="0.458564" stop-color="#B7C6FD"/>
<stop offset="1" stop-color="#00DAEF"/>
</linearGradient>
</defs>
</svg>
