<svg xmlns="http://www.w3.org/2000/svg" width="100" height="87" viewBox="0 0 100 87">
  <path fill="#1056c2" d="M99.8107399,60.8620543 L86.0047175,36.9512046 C85.7523748,36.5141341 85.286031,36.2448825 84.7813455,36.2448697 L72.9106808,36.2448697 L78.8099901,26.0284414 C79.0623392,25.5913598 79.0623392,25.0528531 78.8099901,24.6157715 L65.002555,0.70633451 C64.7502123,0.269264044 64.2838685,1.24114587e-05 63.779183,-4.0955706e-07 L36.172789,-4.0955706e-07 C35.6681035,1.24114587e-05 35.2017596,0.269264044 34.9494169,0.70633451 L21.1433945,24.6157715 C20.8910454,25.0528531 20.8910454,25.5913598 21.1433945,26.0284414 L27.0427038,36.2448697 L15.2186572,36.2448697 C14.7139717,36.2448825 14.2476279,36.5141341 13.9952851,36.9512046 L0.189262806,60.863467 C-0.0630863557,61.3005485 -0.0630863557,61.8390552 0.189262806,62.2761368 L13.9952851,86.1855738 C14.2476279,86.6226443 14.7139717,86.8918959 15.2186572,86.8919087 L42.8264639,86.8919087 C43.3311494,86.8918959 43.7974932,86.6226443 44.049836,86.1855738 L50.0000013,75.877322 L55.9501667,86.1841612 C56.2025095,86.6212316 56.6688533,86.8904833 57.1735388,86.8904961 L84.7813455,86.8904961 C85.286031,86.8904833 85.7523748,86.6212316 86.0047175,86.1841612 L99.8107399,62.2747241 C100.063089,61.8376426 100.063089,61.2991359 99.8107399,60.8620543 Z M96.1406236,60.1557194 L71.793259,60.1557194 L59.620283,39.0702093 L83.966235,39.0702093 L96.1406236,60.1557194 Z M57.1735388,36.2448697 C56.6688533,36.2448825 56.2025095,36.5141341 55.9501667,36.9512046 L49.6750873,47.8202863 L38.6195331,47.8202863 L50.7925091,26.7347763 L75.1398738,26.7347763 L69.6474135,36.2448697 L57.1735388,36.2448697 Z M75.1398738,23.9094366 L50.7910965,23.9094366 L38.6181205,2.82533927 L62.9640725,2.82533927 L75.1384611,23.9094366 L75.1398738,23.9094366 Z M36.172789,4.23800911 L48.345765,25.3221065 L36.172789,46.4076165 L23.9984003,25.3221065 L36.172789,4.23800911 Z M34.9494169,49.9378784 C35.2017596,50.3749489 35.6681035,50.6442005 36.172789,50.6442133 L49.3303958,50.6442133 L54.2987557,60.1557194 L29.8383774,60.1557194 L17.6654014,39.0702093 L28.6743374,39.0702093 L34.9494169,49.9392911 L34.9494169,49.9378784 Z M3.04285588,61.5698019 L15.2172446,40.4842919 L27.3902206,61.5698019 L15.2172446,82.6538992 L3.04285588,61.5698019 Z M42.0099407,84.0665691 L17.6639887,84.0665691 L29.8369647,62.9824717 L54.1829167,62.9824717 L42.0099407,84.0665691 Z M51.6302223,73.053395 L57.853033,62.2747241 C58.0931869,61.8565739 58.1044882,61.342362 57.8812864,60.9157357 L51.9410097,49.5437435 L57.1721261,40.4842919 L69.3451021,61.5698019 L57.1721261,82.6538992 L51.6302223,73.053395 Z M83.9648223,84.0665691 L59.620283,84.0665691 L71.793259,62.9824717 L96.1406236,62.9824717 L83.966235,84.0665691 L83.9648223,84.0665691 Z"/>
</svg>
