<?xml version="1.0" encoding="UTF-8"?>
<svg width="194px" height="221px" viewBox="0 0 194 221" version="1.1" xmlns="http://www.w3.org/2000/svg" xmlns:xlink="http://www.w3.org/1999/xlink">
    <title>Lunyr Logo</title>
    <defs>
        <linearGradient x1="-35.1637643%" y1="14.4071258%" x2="108.232668%" y2="88.2829008%" id="linearGradient-1">
            <stop stop-color="#F85F7D" offset="0%"></stop>
            <stop stop-color="#F14E10" offset="100%"></stop>
        </linearGradient>
    </defs>
    <g id="Page-1" stroke="none" stroke-width="1" fill="none" fillRule="evenodd">
        <g id="Artboard" transform="translate(-742.000000, -222.000000)" fill="url(#linearGradient-1)">
            <g id="Group-2" transform="translate(550.000000, 222.000000)">
                <path d="M287.002173,0.537070342 C287.6239,0.18010516 288.31724,0 289.010579,0 C289.700664,0 290.390748,0.178482591 291.010848,0.532202635 L379.64764,51.4500407 C382.320089,52.984991 382.323345,56.8288569 379.65415,58.3702975 L302.543721,102.846537 C299.907078,99.7717683 296.228798,97.6088838 292.054112,96.8981986 L292.054112,72.7138075 C300.413248,71.2891919 306.781882,64.0509116 306.781882,55.3101324 C306.781882,45.5503798 298.844283,37.6371107 289.052896,37.6371107 C279.261509,37.6371107 271.325537,45.5503798 271.325537,55.3101324 C271.325537,64.0022345 277.624185,71.2113086 285.914964,72.6910916 L285.914964,96.919292 C281.800499,97.6526932 278.182438,99.799352 275.57509,102.835179 L198.458152,58.5244416 C195.787329,56.9894913 195.782447,53.1456253 198.451641,51.6058073 L287.002173,0.537070342 Z M379.899911,64.6804684 C380.546052,64.3072775 381.232881,64.1369078 381.90018,64.1369078 C383.993219,64.1369078 385.912109,65.8049087 385.915364,68.1349178 L385.999997,167.007783 C386.001625,168.434021 385.2383,169.75317 383.998101,170.4671 L298.154198,219.976548 C295.483376,221.517989 292.142,219.596867 292.140373,216.523721 L292.067132,131.690946 C296.321568,130.962412 300.066579,128.747606 302.706477,125.570616 L324.14955,137.866443 C323.575022,140.063402 323.412266,142.406392 323.750798,144.796436 C325.116319,154.462079 334.084162,161.192496 343.779523,159.83116 C353.474884,158.46658 360.225994,149.527847 358.860473,139.862203 C357.493324,130.19656 348.525481,123.464521 338.83012,124.827479 C333.726099,125.544654 329.455388,128.372792 326.738994,132.289674 L305.732107,120.243722 C306.399406,118.382635 306.781882,116.388498 306.781882,114.300251 C306.781882,111.9313 306.300125,109.679175 305.452167,107.616889 L379.899911,64.6804684 Z M192.086263,68.1349178 C192.087891,65.8032861 194.006781,64.1369078 196.09982,64.1369078 C196.767119,64.1369078 197.453948,64.3072775 198.100089,64.6804684 L272.632466,107.667189 C271.797529,109.716494 271.325537,111.950771 271.325537,114.300251 C271.325537,116.39012 271.706386,118.384257 272.375312,120.245344 L251.373307,132.289674 C248.653658,128.372792 244.384575,125.544654 239.280554,124.827479 C229.585192,123.464521 220.61735,130.19656 219.251829,139.862203 C217.88468,149.527847 224.63579,158.46658 234.331151,159.83116 C244.026512,161.192496 252.994355,154.462079 254.361503,144.796436 C254.698408,142.406392 254.53728,140.063402 253.961124,137.866443 L275.399314,125.572238 C278.02131,128.721645 281.724003,130.925093 285.932868,131.673098 L285.859627,216.523721 C285.858,219.596867 282.516624,221.517989 279.847429,219.976548 L194.000271,170.4671 C192.7617,169.75317 191.998375,168.434021 192.000003,167.007783 L192.086263,68.1349178 Z" id="Combined-Shape"></path>
            </g>
        </g>
    </g>
</svg>
