<?xml version="1.0" encoding="UTF-8" standalone="no"?>
<svg
   xmlns:dc="http://purl.org/dc/elements/1.1/"
   xmlns:cc="http://creativecommons.org/ns#"
   xmlns:rdf="http://www.w3.org/1999/02/22-rdf-syntax-ns#"
   xmlns:svg="http://www.w3.org/2000/svg"
   xmlns="http://www.w3.org/2000/svg"
   xmlns:sodipodi="http://sodipodi.sourceforge.net/DTD/sodipodi-0.dtd"
   xmlns:inkscape="http://www.inkscape.org/namespaces/inkscape"
   width="48"
   height="48"
   viewBox="0 0 48 48"
   version="1.1"
   id="svg20"
   sodipodi:docname="favicon.svg"
   inkscape:version="0.92.2 (5c3e80d, 2017-08-06)">
  <metadata
     id="metadata24">
    <rdf:RDF>
      <cc:Work
         rdf:about="">
        <dc:format>image/svg+xml</dc:format>
        <dc:type
           rdf:resource="http://purl.org/dc/dcmitype/StillImage" />
        <dc:title>blue</dc:title>
      </cc:Work>
    </rdf:RDF>
  </metadata>
  <sodipodi:namedview
     pagecolor="#ffffff"
     bordercolor="#666666"
     borderopacity="1"
     objecttolerance="10"
     gridtolerance="10"
     guidetolerance="10"
     inkscape:pageopacity="0"
     inkscape:pageshadow="2"
     inkscape:window-width="1920"
     inkscape:window-height="1029"
     id="namedview22"
     showgrid="false"
     inkscape:zoom="4.3692308"
     inkscape:cx="103.98997"
     inkscape:cy="-7.9264286"
     inkscape:window-x="0"
     inkscape:window-y="25"
     inkscape:window-maximized="1"
     inkscape:current-layer="Page-1" />
  <!-- Generator: Sketch 48.2 (47327) - http://www.bohemiancoding.com/sketch -->
  <title
     id="title2">blue</title>
  <desc
     id="desc4">Created with Sketch.</desc>
  <defs
     id="defs6" />
  <g
     id="Page-1"
     style="fill:none;fill-rule:evenodd;stroke:none;stroke-width:1"
     transform="translate(0,22)">
    <g
       transform="matrix(1.8717315,0,0,1.8943589,5.6159483,-21.907559)"
       id="blue">
      <path
         inkscape:connector-curvature="0"
         id="Fill-8"
         d="M 9.946,9.414 H 3.436 V 2.903 l 6.51,6.511"
         style="fill:#00a3da" />
      <path
         inkscape:connector-curvature="0"
         id="Fill-9"
         d="m 3.436,9.414 h 6.51 v 6.51 l -6.51,-6.51"
         style="fill:#00679c" />
      <path
         inkscape:connector-curvature="0"
         id="Fill-10"
         d="m 16.456,15.924 h -6.51 v -6.51 l 6.51,6.51"
         style="fill:#183a71" />
      <path
         inkscape:connector-curvature="0"
         id="Fill-11"
         d="m 9.946,15.924 h 6.51 v 6.51 l -6.51,-6.51"
         style="fill:#040c26" />
      <path
         style="fill:#040c26"
         inkscape:connector-curvature="0"
         id="Fill-12"
         d="M 9.943,22.434 H 3.436 V 15.926 Z M 9.948,2.903 h 6.508 v 6.508 z" />
      <path
         style="fill:#040c26"
         inkscape:connector-curvature="0"
         id="Fill-13"
         d="M 11.699,25.255 H 0.713 V 13.271 l 1.572,1.572 v 8.84 h 11.5 L 0.717,10.608 0.713,0.181 2.285,1.753 v 8.182 l 15.305,15.32 -1.748,-0.01 v 0.01 z M 2.382,0.082 H 19.179 V 11.76 L 17.606,10.336 V 1.654 H 6.2 l 12.979,12.992 v 9.969 l -1.573,-1.572 v -7.735 z" />
      <g
         id="SportCrypt"
         style="font-weight:normal;font-size:19px;font-family:TruenoRg, Trueno;fill:#040c26"
         aria-label="SportCrypt">
        <path
           inkscape:connector-curvature="0"
           id="path838"
           d="M 36.167969,5.6035156 V 7.4311523 Q 35.101074,6.9208984 34.154785,6.6704102 33.208496,6.4199219 32.327148,6.4199219 q -1.530761,0 -2.365722,0.59375 -0.825684,0.59375 -0.825684,1.6884765 0,0.9184571 0.547363,1.3916016 0.556641,0.463867 2.09668,0.751465 l 1.131836,0.231933 q 2.09668,0.398926 3.089356,1.410157 1.001953,1.001953 1.001953,2.690429 0,2.013184 -1.354493,3.052246 -1.345214,1.039063 -3.952148,1.039063 -0.983398,0 -2.09668,-0.222656 -1.104004,-0.222657 -2.291504,-0.658692 v -1.929687 q 1.141114,0.640137 2.23584,0.964844 1.094727,0.324707 2.152344,0.324707 1.604981,0 2.477051,-0.63086 0.87207,-0.630859 0.87207,-1.799804 0,-1.020508 -0.630859,-1.595704 -0.621582,-0.575195 -2.050293,-0.862793 l -1.141113,-0.222656 q -2.09668,-0.41748 -3.033692,-1.308105 -0.937012,-0.890625 -0.937012,-2.4770511 0,-1.836914 1.289551,-2.8945312 1.298828,-1.0576172 3.571778,-1.0576172 0.974121,0 1.985351,0.1762695 1.011231,0.1762696 2.068848,0.5288086 z" />
        <path
           inkscape:connector-curvature="0"
           id="path840"
           d="m 41.502441,17.441406 v 5.510742 H 39.786133 V 8.609375 h 1.716308 v 1.577148 q 0.538086,-0.9277339 1.354493,-1.3730464 0.825683,-0.4545899 1.966796,-0.4545899 1.892579,0 3.070801,1.5029297 1.1875,1.5029296 1.1875,3.9521486 0,2.449219 -1.1875,3.952148 -1.178222,1.50293 -3.070801,1.50293 -1.141113,0 -1.966796,-0.445313 -0.816407,-0.454589 -1.354493,-1.382324 z m 5.807618,-3.627441 q 0,-1.883301 -0.779297,-2.950195 -0.77002,-1.0761723 -2.124512,-1.0761723 -1.354492,0 -2.133789,1.0761723 -0.77002,1.066894 -0.77002,2.950195 0,1.883301 0.77002,2.959472 0.779297,1.066895 2.133789,1.066895 1.354492,0 2.124512,-1.066895 0.779297,-1.076171 0.779297,-2.959472 z" />
        <path
           inkscape:connector-curvature="0"
           id="path842"
           d="m 55.937988,9.8061523 q -1.373047,0 -2.170898,1.0761717 -0.797852,1.066895 -0.797852,2.931641 0,1.864746 0.788574,2.940918 0.797852,1.066894 2.180176,1.066894 1.36377,0 2.161621,-1.076172 0.797852,-1.076171 0.797852,-2.93164 0,-1.846192 -0.797852,-2.922363 -0.797851,-1.0854497 -2.161621,-1.0854497 z m 0,-1.4472656 q 2.226563,0 3.497559,1.4472656 1.270996,1.4472657 1.270996,4.0078127 0,2.551269 -1.270996,4.007812 -1.270996,1.447266 -3.497559,1.447266 -2.23584,0 -3.506836,-1.447266 -1.261718,-1.456543 -1.261718,-4.007812 0,-2.560547 1.261718,-4.0078127 1.270996,-1.4472656 3.506836,-1.4472656 z" />
        <path
           inkscape:connector-curvature="0"
           id="path844"
           d="m 69.547852,10.205078 q -0.287598,-0.166992 -0.63086,-0.2412108 -0.333984,-0.083496 -0.742187,-0.083496 -1.447266,0 -2.226563,0.9462888 -0.770019,0.937012 -0.770019,2.699707 V 19 H 63.461914 V 8.609375 h 1.716309 v 1.614258 q 0.538086,-0.9462892 1.400879,-1.4008791 0.862793,-0.4638672 2.096679,-0.4638672 0.17627,0 0.389649,0.027832 0.213379,0.018555 0.473144,0.064941 z" />
        <path
           inkscape:connector-curvature="0"
           id="path846"
           d="M 73.04541,5.6591797 V 8.609375 h 3.516113 V 9.9360352 H 73.04541 V 15.57666 q 0,1.270996 0.343262,1.632813 0.352539,0.361816 1.419433,0.361816 h 1.753418 V 19 h -1.753418 q -1.976074,0 -2.727539,-0.73291 -0.751464,-0.742188 -0.751464,-2.69043 V 9.9360352 H 70.07666 V 8.609375 h 1.252442 V 5.6591797 Z" />
        <path
           inkscape:connector-curvature="0"
           id="path848"
           d="M 89.262207,6.2158203 V 8.1918945 Q 88.315918,7.3105469 87.239746,6.8745117 86.172852,6.4384766 84.966797,6.4384766 q -2.375,0 -3.636719,1.4565429 -1.261719,1.4472657 -1.261719,4.1933595 0,2.736816 1.261719,4.193359 1.261719,1.447266 3.636719,1.447266 1.206055,0 2.272949,-0.436035 1.076172,-0.436035 2.022461,-1.317383 v 1.957519 q -0.983398,0.667969 -2.087402,1.001954 -1.094727,0.333984 -2.319336,0.333984 -3.14502,0 -4.954102,-1.92041 -1.809082,-1.929688 -1.809082,-5.260254 0,-3.3398438 1.809082,-5.260254 1.809082,-1.9296875 4.954102,-1.9296875 1.243164,0 2.33789,0.3339844 1.104004,0.324707 2.068848,0.9833984 z" />
        <path
           inkscape:connector-curvature="0"
           id="path850"
           d="m 98.12207,10.205078 q -0.287597,-0.166992 -0.630859,-0.2412108 -0.333984,-0.083496 -0.742188,-0.083496 -1.447265,0 -2.226562,0.9462888 -0.77002,0.937012 -0.77002,2.699707 V 19 H 92.036133 V 8.609375 h 1.716308 v 1.614258 Q 94.290527,9.2773438 95.15332,8.8227539 96.016113,8.3588867 97.25,8.3588867 q 0.17627,0 0.389648,0.027832 0.213379,0.018555 0.473145,0.064941 z" />
        <path
           inkscape:connector-curvature="0"
           id="path852"
           d="m 104.25439,19.964844 q -0.72363,1.855468 -1.41015,2.421386 -0.68653,0.565918 -1.83692,0.565918 h -1.363765 v -1.428711 h 1.001955 q 0.70508,0 1.09472,-0.333984 0.38965,-0.333984 0.8628,-1.577148 l 0.30615,-0.779297 -4.202637,-10.223633 h 1.809087 l 3.24707,8.126953 3.24707,-8.126953 h 1.80908 z" />
        <path
           inkscape:connector-curvature="0"
           id="path854"
           d="m 112.82666,17.441406 v 5.510742 h -1.71631 V 8.609375 h 1.71631 v 1.577148 q 0.53809,-0.9277339 1.35449,-1.3730464 0.82569,-0.4545899 1.9668,-0.4545899 1.89258,0 3.0708,1.5029297 1.1875,1.5029296 1.1875,3.9521486 0,2.449219 -1.1875,3.952148 -1.17822,1.50293 -3.0708,1.50293 -1.14111,0 -1.9668,-0.445313 -0.8164,-0.454589 -1.35449,-1.382324 z m 5.80762,-3.627441 q 0,-1.883301 -0.7793,-2.950195 -0.77002,-1.0761723 -2.12451,-1.0761723 -1.35449,0 -2.13379,1.0761723 -0.77002,1.066894 -0.77002,2.950195 0,1.883301 0.77002,2.959472 0.7793,1.066895 2.13379,1.066895 1.35449,0 2.12451,-1.066895 0.7793,-1.076171 0.7793,-2.959472 z" />
        <path
           inkscape:connector-curvature="0"
           id="path856"
           d="M 124.92432,5.6591797 V 8.609375 h 3.51611 v 1.3266602 h -3.51611 V 15.57666 q 0,1.270996 0.34326,1.632813 0.35254,0.361816 1.41943,0.361816 h 1.75342 V 19 h -1.75342 q -1.97607,0 -2.72754,-0.73291 -0.75146,-0.742188 -0.75146,-2.69043 V 9.9360352 h -1.25244 V 8.609375 h 1.25244 V 5.6591797 Z" />
      </g>
    </g>
  </g>
</svg>
